<svg width="300" height="71" viewBox="0 0 300 71" fill="none" xmlns="http://www.w3.org/2000/svg">
<path d="M156.217 21.7668H165.002V51.6781H156.217V21.7668ZM160.585 9.59123C157.84 9.59123 155.8 11.41 155.8 14.0049C155.8 16.5998 157.831 18.4642 160.585 18.4642C163.432 18.4642 165.417 16.6023 165.417 14.0049C165.417 11.4074 163.432 9.59377 160.585 9.59377V9.59123ZM187.056 21.0058C177.173 21.0058 170.551 27.0936 170.551 36.7174C170.551 46.2245 177.332 52.4289 187.056 52.4289C195.506 52.4289 201.714 47.9645 202.705 40.4816V40.4639H194.976C193.851 43.3784 190.96 45.0678 187.232 45.0678C182.142 45.0678 178.595 41.7702 178.595 36.6971C178.595 31.5707 182.054 28.3264 187.232 28.3264C191.004 28.3264 193.914 30.0335 195.007 32.9785H202.694V32.9429C201.791 25.4727 195.561 21.0084 187.056 21.0084V21.0058ZM150.691 36.7199C150.691 46.2295 144.835 52.434 136.36 52.434C132.22 52.434 129.082 50.9247 126.949 48.2004H126.32V65.0154H117.507V21.7592H126.32V25.2394H126.949C129.082 22.5125 132.094 21.0058 136.299 21.0058C144.895 21.0058 150.691 27.0936 150.691 36.7199ZM141.971 36.7199C141.971 31.9613 138.737 28.3746 134.147 28.3746C129.631 28.3746 126.32 31.9613 126.32 36.7199C126.32 41.4785 129.631 45.0652 134.147 45.0652C138.737 45.0652 141.971 41.4785 141.971 36.7199ZM105.828 11.9173C104.299 10.7986 100.961 10.6794 100.961 10.6794C100.961 10.6794 99.7035 6.905 95.4701 5.67476C93.8229 5.19789 92.4914 4.94676 91.3521 5.03808C90.5284 5.10403 90.4845 5.68237 90.5641 6.19222C90.6384 6.82232 90.8645 7.42904 91.2258 7.96783C91.5675 8.45736 91.9867 8.89683 92.4694 9.27163C94.3582 10.7936 95.4893 10.3091 97.057 10.6972C98.5312 11.0624 98.8854 11.9655 98.8854 11.9655C98.4818 11.5534 97.9492 11.2679 97.3617 11.1487C96.937 11.0578 96.5058 10.995 96.0714 10.961C94.8469 10.8747 93.4742 11.0954 91.9258 9.84996C91.4365 9.49232 91.0128 9.06406 90.6712 8.58168C90.6294 8.51845 90.5672 8.46898 90.4932 8.44029C90.4193 8.41161 90.3375 8.40516 90.2594 8.42187L90.1496 8.44724C89.6005 8.56646 89.2711 8.77192 89.5676 9.42128C89.9217 10.1949 90.9842 11.0016 92.247 11.514C93.5868 12.0619 95.1983 12.0213 96.3651 12.2876C97.0298 12.4179 97.6337 12.7372 98.092 13.2008C97.7828 13.5881 97.5394 14.0166 97.3699 14.4716C97.1383 15.0708 97.0321 15.7052 97.057 16.3411C97.057 16.3411 85.7597 13.0258 77.2298 10.5754C63.0856 6.5169 52.8563 16.1178 46.4815 23.238C35.349 35.6672 27.1156 32.8922 24.5185 32.0957C24.4149 32.0642 24.3054 32.0529 24.1968 32.0625C24.0882 32.0721 23.983 32.1024 23.8878 32.1515C23.7926 32.2006 23.7094 32.2675 23.6436 32.3478C23.5778 32.4282 23.5307 32.5202 23.5054 32.6183C23.4703 32.7636 23.4838 32.9154 23.5441 33.0536C23.6044 33.1917 23.7087 33.3097 23.8431 33.3919C31.9447 38.2114 39.8377 35.9716 51.6181 27.8115C58.8193 22.822 62.7699 22.9641 62.7699 22.9641C62.7699 31.0304 67.4563 29.6048 68.3403 37.4885C68.818 41.7804 66.8989 45.1134 65.3203 47.7413C64.7877 48.6342 65.1199 49.7706 65.9024 50.4834C68.785 53.1315 75.6897 59.1508 75.2367 63.5772C75.2405 63.7457 75.298 63.9095 75.402 64.048C75.506 64.1865 75.6519 64.2936 75.8214 64.3559L77.5016 64.9469C78.3389 65.2412 79.0884 64.5994 79.0527 63.775C78.9676 61.8269 77.8091 58.1438 74.7095 54.344C70.3609 49.0172 70.5915 46.6354 74.2538 42.7975C77.3643 39.5482 80.5682 37.1055 81.7789 31.6696C82.9155 26.5356 80.2525 23.1847 78.7892 21.7769C78.7673 21.7591 78.7541 21.734 78.7523 21.7071C78.7505 21.6802 78.7603 21.6538 78.7796 21.6336C78.7989 21.6134 78.8261 21.6012 78.8551 21.5995C78.8842 21.5978 78.9128 21.6069 78.9347 21.6247C80.4113 22.5489 81.6015 23.813 82.3877 25.2921C83.1739 26.7712 83.529 28.4142 83.4179 30.0589C85.8077 29.8647 88.1668 29.4257 90.4516 28.75C90.6157 28.6983 90.7922 28.6901 90.9611 28.7264C91.1301 28.7626 91.2846 28.8419 91.4072 28.9552C91.5298 29.0685 91.6156 29.2113 91.6549 29.3674C91.6942 29.5234 91.6853 29.6865 91.6293 29.8382C90.9623 31.5024 89.7612 32.9387 88.1866 33.955C87.9742 34.0789 87.7928 34.2431 87.6545 34.4369C87.5163 34.6307 87.4244 34.8495 87.385 35.0787L87.072 36.4967C87.0382 36.6458 87.0509 36.8007 87.1087 36.9434C87.1665 37.0861 87.267 37.2107 87.3985 37.3027C87.5299 37.3946 87.687 37.4502 87.8513 37.4629C88.0156 37.4756 88.1805 37.4449 88.3266 37.3743C90.4103 36.4388 92.1786 34.9962 93.4413 33.2017C94.6129 31.5467 95.425 29.697 95.8325 27.7556C96.041 26.7691 96.5473 25.8571 97.2931 25.1252C98.2704 24.1512 99.827 22.68 101.96 20.8435C103.086 19.8821 108.206 21.2417 109.29 20.3768C110.065 19.7553 110.803 17.9391 110.803 17.9391C110.644 17.3379 108.011 13.5128 105.828 11.9173ZM240.352 21.7592H228.649L217.631 32.7197H217.003V13.5381H208.217V51.6806H217.003V39.6775H217.631L228.629 51.6806H240.377L225.892 36.139L240.352 21.7592ZM268.962 13.5381H260.193V41.1056C260.191 44.1097 261.48 46.9915 263.777 49.1173C266.075 51.2432 269.192 52.4389 272.443 52.4416C274.889 52.4416 276.314 52.0231 276.314 52.0231V44.0836C275.715 44.2738 275.083 44.364 274.45 44.3499C273.007 44.3499 271.622 43.8213 270.6 42.8798C269.578 41.9384 269.002 40.6609 268.997 39.3275L268.962 29.1203H276.314V21.7668H268.962V13.5381ZM244.783 51.6781H253.568V21.7693H244.783V51.6781ZM249.151 9.59631C246.406 9.59631 244.363 11.4125 244.363 14.0099C244.363 16.6074 246.397 18.4667 249.151 18.4667C251.995 18.4667 253.983 16.6074 253.983 14.0099C253.983 11.4125 251.995 9.59631 249.151 9.59631Z" fill="#FF6C0E"/>
</svg>
