<svg width="300" height="71" viewBox="0 0 300 71" fill="none" xmlns="http://www.w3.org/2000/svg">
<path fill-rule="evenodd" clip-rule="evenodd" d="M48.2937 10.0183C52.4937 9.99112 54.1162 10.2194 56.1619 11.1054C57.5782 11.7251 59.434 12.8884 60.2805 13.6874C61.127 14.4919 62.3479 16.1281 62.9936 17.3239C64.0952 19.3732 64.1766 20.3407 64.3176 33.9029C64.4533 46.3996 64.3448 48.6663 63.5362 51.0254C62.9936 52.5909 61.7184 54.6076 60.5355 55.7817C59.0541 57.2385 57.4262 58.1299 54.8053 58.9181C52.7921 59.5215 49.9216 60.0107 48.4294 59.9998C46.9372 59.989 44.4953 59.6574 43.0031 59.2551C41.5108 58.8583 39.5574 58.1625 38.662 57.7114C37.7667 57.2548 36.3016 56.0263 35.4062 54.9718C34.5109 53.9172 33.4745 52.1071 33.1109 50.9493C32.6497 49.5143 32.438 44.4645 32.4326 34.99C32.4326 27.3637 32.6714 20.2103 32.9698 19.0905C33.2628 17.9708 34.4241 16.0356 35.5419 14.7909C36.6597 13.5461 38.7977 11.9697 40.2899 11.2903C42.4984 10.2792 43.9852 10.04 48.2937 10.0183V10.0183ZM42.1946 20.6778C41.131 22.1291 41.0659 22.901 41.0876 34.5824C41.0984 44.4591 41.2667 47.2748 41.9178 48.5794C42.3628 49.4763 43.2201 50.4547 43.817 50.7536C44.4139 51.0526 46.579 51.2972 48.6247 51.2972C51.9782 51.2972 52.4991 51.145 53.8014 49.8024L55.2557 48.3076C55.2123 21.4116 55.2123 21.4007 53.8991 19.9059C52.7596 18.6067 52.1356 18.3948 49.1511 18.2806C47.2627 18.2099 45.179 18.373 44.517 18.6448C43.8604 18.9166 42.8132 19.8298 42.1946 20.6778V20.6778ZM85.5996 10.002C89.219 9.97481 91.4004 10.2249 92.9252 10.85C94.119 11.3392 95.8174 12.2633 96.6965 12.8992C97.5809 13.5406 98.9755 15.1659 99.8003 16.5086C100.625 17.8512 101.189 19.1394 101.048 19.3623C100.907 19.5852 99.3282 20.5038 97.5375 21.4007C95.7468 22.2976 94.0376 23.0314 93.7391 23.0314C93.4407 23.0314 92.7352 22.2378 92.1709 21.2648C91.612 20.2918 90.326 19.1558 89.3221 18.7318C88.1771 18.2534 86.4841 18.0686 84.7857 18.2426C82.6911 18.4545 81.6656 18.9057 78.5454 21.9443V34.4465C78.5454 44.4699 78.7082 47.2693 79.3594 48.5794C79.8043 49.4763 80.6617 50.4547 81.2586 50.7536C81.8555 51.0526 83.95 51.2972 85.9144 51.2972C89.1105 51.2972 89.6314 51.1396 90.9337 49.7807C91.7314 48.949 92.6538 47.7857 92.9849 47.1987C93.5709 46.1605 93.674 46.1768 96.9732 47.764C98.8344 48.6609 100.565 49.6393 100.82 49.9383C101.092 50.2481 100.934 51.1776 100.462 52.1126C100.012 53.0095 98.8616 54.5695 97.9119 55.5806C96.9623 56.5862 95.0848 57.9016 93.7391 58.4941C92.3934 59.0866 89.7074 59.7063 87.7702 59.8639C85.7462 60.027 82.9733 59.8531 81.2586 59.4563C79.6198 59.0703 77.4222 58.3256 76.3749 57.7984C75.3276 57.2711 73.9439 56.2655 73.2873 55.5643C72.6362 54.8631 71.6052 53.1834 70.992 51.8408C69.9719 49.585 69.885 48.2967 69.8633 35.2618C69.8471 23.7979 69.999 20.6669 70.6881 18.6828C71.1548 17.3402 72.3214 15.4105 73.2765 14.3995C74.2369 13.3939 76.2393 12.0023 77.7315 11.3066C79.9346 10.2846 81.416 10.04 85.5996 10.002V10.002ZM156.549 10.0183C159.381 9.99655 161.204 10.301 163.06 11.1054C164.477 11.7251 166.452 13.0079 167.45 13.9592C168.443 14.9159 169.604 16.3672 170.028 17.188C170.445 18.0088 170.793 18.9275 170.793 19.2264C170.793 19.5254 169.328 20.5038 167.537 21.4007C165.746 22.2976 163.977 23.026 163.603 23.026C163.228 23.0206 162.377 22.1671 161.704 21.1235C161.031 20.0798 159.81 18.9601 158.991 18.6394C158.171 18.3132 156.646 18.1936 155.599 18.373C154.552 18.547 153.152 19.2373 152.479 19.9113C151.812 20.5799 151.128 21.7432 150.96 22.4879C150.797 23.238 150.976 24.548 151.367 25.4068C151.92 26.6299 153.429 27.6301 158.312 30.0055C162.849 32.2124 165.296 33.7887 167.282 35.7836C168.953 37.4579 170.272 39.3712 170.668 40.6975C171.026 41.8934 171.319 44.2145 171.319 45.8615C171.319 47.5085 171.015 49.8024 170.646 50.9656C170.283 52.1343 169.225 53.9662 168.308 55.0424C167.39 56.1241 165.312 57.5918 163.695 58.3039C162.018 59.0486 159.24 59.7226 157.227 59.8694C154.818 60.0542 152.669 59.8368 150.444 59.2008C148.653 58.6898 146.456 57.7114 145.56 57.0373C144.665 56.3579 143.238 54.8522 142.386 53.6889C141.436 52.3898 140.97 51.1994 141.165 50.6178C141.344 50.0959 142.956 48.9327 144.746 48.0358C146.537 47.1389 148.187 46.3942 148.409 46.3833C148.632 46.3724 149.185 47.1443 149.63 48.0956C150.075 49.0523 150.932 50.1666 151.529 50.5688C152.159 50.9983 154.047 51.3027 156.049 51.3027C159.148 51.2972 159.636 51.1396 161.069 49.6665C162.143 48.5576 162.659 47.4705 162.67 46.2692C162.68 45.2962 162.235 43.8883 161.677 43.1436C161.112 42.3935 157.645 40.192 153.966 38.2515C149.05 35.6586 146.716 34.066 145.17 32.2722C144.014 30.9295 142.836 28.9727 142.554 27.9236C142.272 26.8745 142.033 24.9176 142.022 23.575C142.017 22.2324 142.391 20.0255 142.858 18.6828C143.325 17.3402 144.491 15.4105 145.446 14.3995C146.407 13.3939 148.409 12.0023 149.901 11.3066C151.915 10.3716 153.629 10.04 156.549 10.0183V10.0183Z" fill="#050708"/>
<path d="M218.68 15.6931C218.599 13.4536 218.794 11.6055 219.153 11.2032C219.63 10.6651 224.877 10.5509 266.568 10.801V58.6354H257.886L257.343 26.8255L241.335 42.8664C232.528 51.6885 225.083 58.9072 224.785 58.9018C224.487 58.8963 223.081 57.7331 221.659 56.3198C220.238 54.9011 219.077 53.3736 219.082 52.9279C219.082 52.4822 226.294 44.8993 251.114 20.0417L218.816 19.4982L218.68 15.6931Z" fill="#009CA7"/>
<path fill-rule="evenodd" clip-rule="evenodd" d="M123.758 11.3445L130.752 34.4464C134.599 47.1551 137.617 57.8526 137.448 58.2277C137.248 58.6843 135.815 58.9072 133.08 58.9072C129.379 58.9072 128.962 58.7984 128.484 57.6841C128.196 57.0101 127.583 55.0532 126.297 50.21L114.088 50.1991L113.09 53.8737C112.542 55.8958 111.809 57.8635 111.462 58.2494C111.055 58.7115 109.459 58.9452 106.898 58.9289C104.733 58.918 102.856 58.7223 102.731 58.4995C102.601 58.2766 105.525 48.0629 109.237 35.8053C112.943 23.5478 116.231 12.959 116.541 12.2686C117.056 11.1325 117.409 11.0347 123.758 11.3445V11.3445ZM117.072 41.2791C117.219 41.4259 118.749 41.5346 120.464 41.5291C123.41 41.5128 123.568 41.4476 123.324 40.2898C123.183 39.6158 122.553 36.6805 121.929 33.7669C121.31 30.8534 120.6 28.4671 120.361 28.4671C120.117 28.4671 119.216 31.2937 118.359 34.7454C117.501 38.197 116.926 41.1378 117.072 41.2791V41.2791ZM191.983 11.0728C193.757 11.0728 195.32 11.2576 195.45 11.4804C195.58 11.7033 198.863 22.2812 202.738 34.99C206.618 47.6933 209.624 58.2766 209.418 58.5049C209.217 58.7332 207.117 58.8582 200.47 58.6354L198.163 50.4818H185.818L183.512 58.6354L179.323 58.7713C176.388 58.8691 175.042 58.706 174.825 58.2277C174.657 57.8526 177.614 47.2747 181.401 34.7182C185.189 22.1616 188.396 11.7033 188.521 11.4804C188.651 11.2576 190.208 11.0728 191.983 11.0728V11.0728ZM188.689 41.1052C188.694 41.328 190.165 41.5128 191.956 41.5128C194.49 41.5128 195.211 41.3335 195.211 40.6975C195.211 40.2517 194.636 37.3165 193.931 34.1746C193.22 31.0327 192.411 28.4671 192.124 28.4671C191.831 28.4671 190.941 31.2176 190.138 34.5823C189.335 37.947 188.684 40.8823 188.689 41.1052V41.1052Z" fill="#050708"/>
</svg>
