<svg width="300" height="71" viewBox="0 0 300 71" fill="none" xmlns="http://www.w3.org/2000/svg">
<path d="M64.7495 34.9974L80.492 24.2064C90.2166 17.5422 96.3211 13.4855 96.4565 13.598C96.6045 13.7189 95.9722 15.6581 92.4495 25.0233L72.9961 37.8998L72.8777 48.5995C72.7741 57.7737 72.7064 59.4753 72.4019 60.5213C72.2053 61.1917 71.8416 62.1465 71.5942 62.643C71.3447 63.1395 70.8456 63.9181 70.4841 64.3764C70.1204 64.8347 69.1583 65.6728 68.3442 66.2392C67.528 66.8079 66.0584 67.5589 65.0667 67.9133C64.0792 68.2697 62.6033 68.7004 61.7892 68.8723C60.9752 69.042 59.3576 69.2817 58.1946 69.4027C56.6848 69.5597 55.3844 69.5554 53.6484 69.3836C52.312 69.252 50.3138 68.902 49.208 68.6049C48.1042 68.31 46.4866 67.735 45.6133 67.3319C44.7421 66.9267 43.5157 66.1968 42.892 65.7067C42.2661 65.2187 41.4118 64.3403 40.991 63.7569C40.5702 63.1734 39.9909 62.0744 39.1768 59.9378L39.0647 49.1172C39.0034 43.1659 38.9822 38.1523 39.0161 37.9783C39.0711 37.7089 39.6927 37.6601 47.0744 37.6601L47.1379 47.8442C47.1992 57.9668 47.2013 58.0347 47.6876 59.0891C47.9562 59.6726 48.3833 60.377 48.6392 60.6528C48.8929 60.9287 49.4363 61.3721 49.8423 61.6352C50.2504 61.8983 51.1533 62.2887 51.8511 62.5029C52.8026 62.7936 53.8345 62.8912 55.9744 62.8976C58.3447 62.9061 59.0806 62.8276 60.3091 62.4393C61.1232 62.1826 62.2037 61.6585 62.709 61.2724C63.299 60.8247 63.8297 60.1564 64.7495 58.2405V34.9974Z" fill="#EE312B"/>
<path fill-rule="evenodd" clip-rule="evenodd" d="M96.3845 28.0254C96.4542 28.0148 96.4796 28.1739 96.4394 28.3776C96.4014 28.5813 95.5006 30.5714 94.4391 32.7971C93.3777 35.0249 92.4726 37.0532 92.4261 37.3057C92.3437 37.764 92.3606 37.7661 96.1498 37.7661C98.7908 37.7661 100.425 37.8679 101.489 38.0949C102.333 38.2774 103.593 38.6975 104.291 39.0327C105.079 39.4104 105.978 40.0872 106.669 40.8256C107.28 41.4769 108.031 42.559 108.338 43.2294C108.742 44.1099 108.926 44.9225 109 46.1468C109.057 47.1291 108.989 48.3363 108.837 49.011C108.693 49.6539 108.374 50.6087 108.128 51.1327C107.885 51.6568 107.253 52.514 106.726 53.0338C106.202 53.5557 105.2 54.2368 104.502 54.5508C103.804 54.8627 102.829 55.2255 102.335 55.3549C101.656 55.531 101.453 55.6795 101.508 55.9596C101.548 56.1633 103.546 58.9809 105.948 62.2186C108.35 65.4563 110.317 68.1551 110.317 68.2123C110.317 68.2696 108.247 68.3163 101.119 68.3078L92.8237 56.1187H83.9364L84.0464 60.9986C84.1077 63.6825 84.0971 66.428 83.8857 68.3184H76.062V55.4822C76.062 48.4212 76.1339 42.489 76.2206 42.2959C76.3073 42.1028 79.6144 39.6968 83.5685 36.9492C87.5226 34.2016 91.9948 31.0743 93.5066 30.0007C95.0185 28.925 96.3126 28.036 96.3845 28.0254ZM83.9935 46.9254C84.0337 48.8307 84.076 50.4623 84.0823 50.5493C84.0908 50.6363 87.309 50.6511 91.2335 50.5832C97.9725 50.4644 98.4228 50.4305 99.3067 49.9998C99.9051 49.707 100.387 49.272 100.641 48.7989C100.937 48.2472 101.022 47.7189 100.973 46.7472C100.929 45.8518 100.774 45.2578 100.484 44.8631C100.252 44.547 99.793 44.0866 99.4653 43.8384C98.888 43.4034 98.628 43.3864 91.5296 43.3228C87.4951 43.2867 84.1309 43.3037 84.0548 43.361C83.9787 43.4161 83.9512 45.0201 83.9935 46.9254Z" fill="#272324"/>
<path fill-rule="evenodd" clip-rule="evenodd" d="M96.397 0C96.4942 0 96.5725 0.0721375 96.5704 0.159127C96.5704 0.246116 95.6167 2.84731 94.4516 5.94073C93.2887 9.03416 92.3139 11.5738 92.2864 11.5866C92.2589 11.6014 86.2431 15.6114 78.9164 20.4977C71.5897 25.386 65.428 29.4576 65.225 29.5445C64.8804 29.6931 64.855 29.4278 64.8486 21.5352L69.5555 18.3166C72.1458 16.5449 78.8783 11.926 84.5198 8.04969C90.1592 4.17336 95.1008 0.776539 95.4983 0.500719C95.8958 0.224899 96.2997 0 96.397 0V0ZM241.31 36.7434C242.124 36.7243 243.788 36.858 245.01 37.0384C246.23 37.2208 248.064 37.6494 249.081 37.991C250.098 38.3347 251.479 38.8906 252.147 39.2258C252.815 39.561 253.934 40.293 254.631 40.8489C255.329 41.4069 256.298 42.3489 256.782 42.943C257.266 43.5392 257.968 44.6467 258.342 45.4042C258.714 46.1616 259.203 47.4983 259.429 48.3745C259.653 49.2487 259.892 51.016 259.96 52.2997C260.051 54.031 259.992 55.1003 259.732 56.437C259.505 57.5912 259.042 58.9278 258.444 60.1499C257.928 61.2002 257.044 62.6323 256.477 63.3325C255.911 64.0326 254.788 65.0892 253.982 65.6791C253.177 66.271 251.851 67.056 251.037 67.4273C250.223 67.7986 248.415 68.3587 247.019 68.6706C244.78 69.1756 244.023 69.2435 240.57 69.252C236.963 69.2605 236.485 69.2159 234.438 68.677C233.154 68.3397 231.215 67.6034 229.839 66.933C227.824 65.9506 227.206 65.5199 225.8 64.1281C224.55 62.889 223.933 62.0658 223.297 60.7864C222.829 59.8529 222.269 58.3253 222.047 57.3917C221.751 56.1421 221.647 54.9412 221.656 52.8301C221.664 50.7593 221.772 49.5839 222.047 48.5867C222.256 47.8293 222.688 46.6348 223.009 45.9346C223.328 45.2344 223.984 44.1354 224.464 43.4947C224.944 42.8518 225.933 41.8249 226.663 41.2075C227.392 40.5922 228.701 39.7202 229.575 39.2682C230.446 38.8163 231.922 38.2095 232.852 37.9189C233.782 37.6303 235.351 37.2823 236.341 37.1508C237.328 37.0171 238.519 36.8771 238.984 36.841C239.449 36.8071 240.496 36.7604 241.31 36.7434V36.7434ZM235.601 43.6962C234.497 44.2288 233.516 44.9077 232.776 45.6482C232.152 46.2719 231.368 47.3328 231.031 48.0032C230.695 48.6737 230.279 49.8194 230.105 50.5493C229.934 51.2791 229.792 52.4482 229.792 53.1483C229.792 53.8485 229.923 55.043 230.082 55.8005C230.238 56.5579 230.619 57.6803 230.924 58.2934C231.228 58.9066 231.835 59.802 232.271 60.2836C232.706 60.7673 233.444 61.4272 233.909 61.7518C234.374 62.0764 235.421 62.6005 236.235 62.9145C237.373 63.3537 238.229 63.5128 239.936 63.5998C241.312 63.6719 242.678 63.6168 243.53 63.4534C244.285 63.3091 245.499 62.9124 246.226 62.5708C246.954 62.2313 248.095 61.442 248.764 60.8161C249.432 60.1902 250.242 59.1633 250.563 58.5353C250.884 57.9052 251.288 56.8655 251.46 56.2248C251.631 55.584 251.773 54.2941 251.775 53.3605C251.777 52.427 251.633 51.0903 251.453 50.3901C251.276 49.69 250.874 48.591 250.561 47.9502C250.246 47.3073 249.463 46.2486 248.823 45.5951C248.18 44.9395 247.178 44.163 246.596 43.8681C246.015 43.571 245.015 43.1743 244.376 42.9855C243.735 42.7966 242.498 42.6014 241.627 42.5505C240.754 42.5017 239.422 42.5547 238.667 42.6693C237.863 42.7903 236.59 43.2167 235.601 43.6962V43.6962ZM159.648 37.3418H167.725L171.57 45.2451C173.684 49.5924 177.086 56.5621 182.844 68.3184L174.492 68.3333L171.743 62.5899L155.673 62.5729L153.135 68.3227L149.065 68.3206C146.826 68.3184 145.026 68.2463 145.066 68.1593C145.107 68.0723 148.403 61.1026 152.393 52.671L159.648 37.3418ZM158.792 55.9023C158.821 55.9596 161.041 55.9829 163.727 55.9553L168.611 55.9065C164.938 47.4389 163.784 44.9798 163.676 44.9798C163.566 44.9798 162.412 47.4134 161.109 50.3901C159.804 53.3648 158.762 55.8471 158.792 55.9023ZM112.681 37.7279L123.604 37.8213C134.014 37.9125 134.612 37.9379 136.325 38.3835C137.315 38.6402 138.594 39.1091 139.167 39.4231C139.742 39.7371 140.647 40.4246 141.176 40.9507C141.706 41.4769 142.379 42.385 142.669 42.9664C143.081 43.7938 143.197 44.3497 143.197 45.5103C143.197 46.656 143.079 47.2373 142.679 48.0563C142.394 48.6398 141.721 49.5457 141.184 50.0719C140.645 50.596 139.738 51.2579 139.165 51.5401C138.15 52.0408 138.137 52.0599 138.651 52.2551C138.943 52.3654 139.894 52.7983 140.766 53.2162C141.639 53.6321 142.736 54.362 143.206 54.8351C143.675 55.3082 144.293 56.1718 144.58 56.7552C145.003 57.6166 145.1 58.1364 145.1 59.5177C145.1 61.0028 145.016 61.3932 144.426 62.5941C144.049 63.3579 143.25 64.4697 142.628 65.0977C142.011 65.7172 140.935 66.5023 140.237 66.8417C139.539 67.1833 138.397 67.6246 137.699 67.8241C136.585 68.1423 134.997 68.1954 112.643 68.3184L112.681 37.7279ZM120.466 49.8597C131.606 49.743 132.747 49.6751 133.365 49.3887C133.771 49.1999 134.39 48.7437 134.739 48.3767C135.242 47.842 135.388 47.4792 135.445 46.6072C135.503 45.7309 135.418 45.3617 135.018 44.7677C134.746 44.3603 134.143 43.8341 133.68 43.6007C132.904 43.2103 132.339 43.1722 126.662 43.1128L120.49 43.047L120.466 49.8597ZM120.466 63.0142C130.779 63.0121 133.352 62.9251 133.893 62.7723C134.359 62.6408 135.05 62.331 135.429 62.0849C135.807 61.8367 136.306 61.2532 136.534 60.7864C136.765 60.3197 136.955 59.5792 136.957 59.1421C136.957 58.7051 136.826 58.0834 136.661 57.763C136.498 57.4426 136.141 56.9695 135.868 56.7149C135.598 56.4582 134.898 56.0317 134.316 55.7644C133.306 55.3019 132.984 55.2764 126.884 55.2021L120.509 55.1236L120.466 63.0142ZM185.17 37.7661L193.734 37.7725L211.284 57.9964L211.377 37.7661H219.636V68.5306L210.861 68.5455L193.522 48.7734L193.417 68.5306H185.17V37.7661Z" fill="#6E6F72"/>
</svg>
