<svg width="300" height="71" viewBox="0 0 300 71" fill="none" xmlns="http://www.w3.org/2000/svg">
<path fill-rule="evenodd" clip-rule="evenodd" d="M137.686 10.0137C139.959 10.043 141.054 10.1139 142.353 10.3153C143.287 10.4593 144.65 10.734 145.384 10.9257C146.117 11.1173 147.208 11.4482 147.808 11.6606C148.408 11.8718 149.499 12.3381 150.233 12.6958C150.966 13.0535 152.057 13.6737 152.657 14.0729C153.32 14.5148 154.153 15.2289 154.778 15.8906C155.344 16.49 156.163 17.4874 156.597 18.1063C157.031 18.7253 157.587 19.6018 157.834 20.0535C158.083 20.5052 158.512 21.4794 158.787 22.2179C159.063 22.9565 159.499 24.3848 159.752 25.392C160.006 26.3991 160.33 27.9922 160.472 28.9322C160.614 29.8722 160.791 31.657 160.867 32.8998C160.97 34.6003 160.969 35.7308 160.863 37.4777C160.786 38.7534 160.608 40.5663 160.47 41.5063C160.331 42.4463 160.008 44.0394 159.751 45.0466C159.494 46.0537 159.113 47.3441 158.905 47.9154C158.697 48.4868 158.262 49.5025 157.938 50.1739C157.616 50.8453 157.026 51.8342 156.629 52.3713C156.232 52.9084 155.407 53.8289 154.798 54.4161C154.187 55.0033 153.183 55.82 152.566 56.229C151.949 56.6392 151.035 57.1812 150.536 57.4339C150.035 57.6866 149.109 58.098 148.475 58.3483C147.841 58.5985 146.614 58.9867 145.748 59.2101C144.881 59.4335 143.598 59.7021 142.899 59.8071C141.922 59.9548 140.588 59.9988 137.171 60C133.833 60.0012 132.36 59.9536 131.292 59.812C130.509 59.7082 129.241 59.4897 128.474 59.3273C127.707 59.165 126.453 58.8158 125.686 58.5509C124.919 58.286 123.882 57.8807 123.383 57.65C122.882 57.4205 122.092 56.9956 121.625 56.7075C121.158 56.4194 120.45 55.9299 120.052 55.6198C119.653 55.3109 118.951 54.6725 118.49 54.2025C118.03 53.7325 117.419 53.0183 117.133 52.6155C116.847 52.2126 116.33 51.3886 115.985 50.7843C115.64 50.18 115.123 49.1362 114.836 48.4648C114.548 47.7934 114.116 46.6116 113.874 45.8401C113.634 45.0686 113.302 43.777 113.137 42.9713C112.972 42.1655 112.753 40.8471 112.65 40.0414C112.546 39.2357 112.429 37.5046 112.389 36.1959C112.347 34.7749 112.376 33.0524 112.462 31.9232C112.542 30.8818 112.689 29.4267 112.789 28.6881C112.89 27.9495 113.105 26.6591 113.266 25.8192C113.426 24.9806 113.7 23.8538 113.872 23.3166C114.045 22.7795 114.404 21.8737 114.67 21.3023C114.935 20.7322 115.571 19.6335 116.083 18.8608C116.721 17.8963 117.431 17.0357 118.348 16.114C119.084 15.3754 120.176 14.422 120.777 13.9959C121.377 13.5699 122.467 12.9265 123.201 12.5664C123.934 12.2063 125.134 11.7387 125.868 11.5263C126.601 11.3151 127.965 10.9843 128.898 10.7926C129.832 10.5997 131.304 10.3592 132.171 10.2579C133.038 10.1578 133.965 10.0516 134.232 10.0247C134.498 9.99665 136.052 9.99177 137.686 10.0137V10.0137ZM133.383 18.569C132.717 18.6764 131.735 18.9255 131.201 19.1232C130.668 19.321 129.904 19.686 129.504 19.9338C129.104 20.1817 128.429 20.7151 128.002 21.118C127.577 21.5221 126.978 22.1813 126.673 22.5842C126.367 22.987 125.886 23.7561 125.603 24.2933C125.32 24.8304 124.957 25.6544 124.796 26.1244C124.636 26.5944 124.39 27.6931 124.252 28.566C124.112 29.4389 123.935 30.7305 123.857 31.4348C123.778 32.1405 123.714 33.8435 123.712 35.2193C123.711 36.893 123.778 38.2273 123.915 39.2479C124.028 40.0878 124.259 41.3513 124.429 42.0557C124.599 42.7601 124.95 43.8868 125.209 44.5583C125.469 45.2297 125.922 46.1917 126.217 46.6947C126.511 47.1988 127.071 47.9606 127.462 48.3903C127.852 48.8188 128.635 49.4805 129.201 49.8614C129.794 50.2593 130.695 50.722 131.323 50.9515C131.923 51.1713 132.795 51.4337 133.262 51.5351C133.729 51.6376 134.792 51.7511 135.626 51.7878C136.49 51.8268 137.661 51.7939 138.353 51.7121C139.02 51.6327 140.083 51.4594 140.717 51.3239C141.351 51.1896 142.196 50.9442 142.596 50.7794C142.996 50.6134 143.621 50.2996 143.985 50.0811C144.349 49.8638 145.063 49.2742 145.571 48.77C146.08 48.267 146.716 47.5248 146.984 47.1219C147.253 46.7191 147.664 46.0049 147.898 45.5349C148.132 45.0649 148.46 44.2958 148.628 43.8258C148.795 43.3558 149.019 42.5318 149.127 41.9946C149.234 41.4575 149.378 40.6066 149.448 40.1024C149.517 39.5995 149.629 38.3359 149.694 37.2946C149.777 35.992 149.773 34.7749 149.683 33.3881C149.611 32.2809 149.445 30.7414 149.315 29.9699C149.185 29.1984 148.934 28.0447 148.757 27.4063C148.58 26.769 148.24 25.7509 148.001 25.1454C147.762 24.5399 147.374 23.7183 147.142 23.3203C146.909 22.9211 146.308 22.1776 145.808 21.6674C145.307 21.1571 144.572 20.5247 144.172 20.2622C143.772 19.9985 143.035 19.6054 142.535 19.3869C142.035 19.1684 141.216 18.884 140.717 18.7546C140.216 18.6239 139.385 18.4579 138.868 18.3847C138.352 18.3102 137.342 18.2589 136.626 18.2687C135.909 18.2785 135.159 18.3065 134.959 18.3309C134.759 18.3554 134.05 18.4628 133.383 18.569V18.569ZM243.054 10.8646L247.952 22.1569C250.645 28.3682 253.416 34.7676 254.111 36.379C254.804 37.9905 256.61 42.1936 258.123 45.718C259.636 49.2436 261.495 53.6104 262.257 55.4233C263.017 57.2361 263.637 58.7877 263.636 58.872C263.634 58.9916 262.442 59.0246 252.541 59.0209L247.809 47.6102L226.964 47.5419L222.587 58.9635L217.23 58.9941C213.007 59.0185 211.872 58.9928 211.875 58.872C211.877 58.7877 216.411 48.0351 221.95 34.9751C227.49 21.9152 232.073 11.1344 232.134 11.016C232.239 10.8146 232.596 10.8036 243.054 10.8646V10.8646ZM230.221 38.6985C241.094 38.7473 244.272 38.7473 244.298 38.7303C244.324 38.7132 242.766 34.77 240.836 29.9699C238.906 25.1698 237.287 21.1388 237.237 21.0142C237.173 20.8519 236.147 23.3703 233.683 29.7428L230.221 38.6985Z" fill="#592C82"/>
<path d="M46.7426 24.1553C41.0587 18.204 36.3881 13.2879 36.3639 13.2293C36.3396 13.1694 41.0453 13.1218 57.8644 13.1194L68.5316 23.999C74.3986 29.9833 79.1989 34.9495 79.1989 35.0349C79.1989 35.1204 74.481 40.0328 58.2281 56.7136L36.7724 56.7099L37.1469 56.3107C37.353 56.091 41.912 51.242 47.2772 45.5349C52.6435 39.8277 57.0425 35.1167 57.0547 35.0666C57.0668 35.0166 52.4265 30.1066 46.7426 24.1553Z" fill="#F3912D"/>
<path d="M184.417 11.0393C185.017 10.9612 186.108 10.8562 186.841 10.8074C187.574 10.7573 192.198 10.7097 206.054 10.6816V19.1051L186.962 19.1014L185.811 19.3932C185.178 19.5531 184.305 19.8619 183.871 20.0805C183.437 20.2978 182.756 20.7104 182.356 20.9973C181.956 21.2829 181.353 21.8128 181.016 22.1729C180.681 22.533 180.236 23.0763 180.03 23.3778C179.824 23.6793 179.462 24.3947 179.227 24.9648C178.992 25.5361 178.662 26.5518 178.496 27.2233C178.329 27.8947 178.11 28.9934 178.008 29.6648C177.906 30.3363 177.769 31.6266 177.702 32.5337C177.636 33.4407 177.548 35.0058 177.508 36.0129C177.45 37.4803 177.485 38.2311 177.688 39.7973C177.826 40.8716 178.02 42.1083 178.119 42.5441C178.22 42.9799 178.415 43.6953 178.556 44.1311C178.696 44.5669 179 45.3092 179.233 45.7792C179.466 46.2492 179.888 46.9365 180.17 47.3052C180.453 47.6738 180.924 48.1756 181.218 48.4185C181.51 48.6615 182.049 49.0387 182.416 49.2572C182.818 49.4953 183.831 49.8664 186.841 50.7258L206.296 50.7234V59.0247H195.326C188.464 59.0247 184.004 58.9771 183.416 58.899C182.9 58.8294 182.123 58.6951 181.689 58.5999C181.255 58.5046 180.437 58.2837 179.871 58.1067C179.305 57.9309 178.131 57.434 177.265 57.0031C176.398 56.5721 175.175 55.8482 174.546 55.3941C173.918 54.94 172.909 54.0695 172.303 53.4604C171.698 52.8512 170.958 52.0137 170.658 51.5999C170.359 51.1873 169.852 50.395 169.535 49.8395C169.216 49.2853 168.798 48.4197 168.605 47.9156C168.412 47.4126 168.064 46.3676 167.831 45.5961C167.6 44.8245 167.298 43.6428 167.16 42.9714C167.023 42.3 166.829 41.2012 166.73 40.5298C166.63 39.8584 166.483 38.4581 166.405 37.4168C166.322 36.3328 166.292 34.7164 166.334 33.6324C166.374 32.5911 166.466 31.1908 166.539 30.5194C166.612 29.848 166.802 28.6394 166.962 27.8337C167.122 27.0279 167.394 25.8743 167.566 25.27C167.738 24.6657 168.075 23.6488 168.316 23.0116C168.557 22.3743 168.985 21.3843 169.269 20.8141C169.553 20.244 170.124 19.254 170.538 18.6167C170.984 17.9307 171.746 17.0053 172.4 16.3534C173.011 15.743 174.05 14.8848 174.719 14.4368C175.386 13.99 176.45 13.3808 177.083 13.0841C177.716 12.7863 178.834 12.3468 179.568 12.1087C180.301 11.8707 181.447 11.5655 182.113 11.4288C182.78 11.2933 183.816 11.1187 184.417 11.0393Z" fill="#592C82"/>
<path d="M74.7125 24.0492C69.591 18.6778 65.1787 14.0486 64.9059 13.7629L64.4102 13.2416L86.0477 13.2453L96.5937 24.1713C102.394 30.18 107.126 35.1474 107.109 35.2096C107.092 35.2707 102.429 40.1599 86.4113 56.8273L64.7738 56.8334L65.0769 56.5026C65.2429 56.3194 69.8795 51.4522 85.381 35.1974L84.7021 34.5065C84.33 34.1268 79.834 29.4207 74.7125 24.0492Z" fill="#592C82"/>
</svg>
